PathFileType	4	(X/Y/Z)	output.trc
DataRate	CameraRate	NumFrames	NumMarkers	Units	OrigDataRate	OrigDataStartFrame	OrigNumFrames
100	100	13	23	m	100	1496	5983
Frame#	Time	C7			T8			EL			EM			US			RS			AA			Fore_Clus_1			Fore_Clus_2			Fore_Clus_3			Fore_Clus_4			Hum_Clus_1			Hum_Clus_2			Hum_Clus_3			Hum_Clus_4			Thor_Clus_1			Thor_Clus_2			Thor_Clus_3			Thor_Clus_4			IJ			PX			GH			Thor_Clus_5		
		X1	Y1	Z1	X2	Y2	Z2	X3	Y3	Z3	X4	Y4	Z4	X5	Y5	Z5	X6	Y6	Z6	X7	Y7	Z7	X8	Y8	Z8	X9	Y9	Z9	X10	Y10	Z10	X11	Y11	Z11	X12	Y12	Z12	X13	Y13	Z13	X14	Y14	Z14	X15	Y15	Z15	X16	Y16	Z16	X17	Y17	Z17	X18	Y18	Z18	X19	Y19	Z19	X20	Y20	Z20	X21	Y21	Z21	X22	Y22	Z22	X23	Y23	Z23
1495	14.950000	-0.019686	1.588488	-0.041201	-0.046660	1.356228	-0.106584	-0.199847	1.179681	0.085741	-0.156569	1.178594	0.034691	-0.245528	0.925814	0.056854	-0.204602	0.913769	0.094232	-0.184876	1.506691	0.083663	-0.262729	0.972824	0.092123	-0.267783	0.918845	0.090389	-0.246832	0.916296	0.108898	-0.228798	0.969337	0.122196	-0.204939	1.280640	0.148825	-0.234481	1.290947	0.097582	-0.241120	1.353967	0.101731	-0.205675	1.354735	0.148828	0.101403	1.444523	0.092211	0.054782	1.389716	0.136130	0.061664	1.441761	0.111794	0.112171	1.393469	0.107293	0.037182	1.487433	0.050754	0.058855	1.302540	0.091702	-0.147140	1.489247	0.097586	0.050082	1.412596	0.129052
1496	14.960000	-0.019640	1.588482	-0.041219	-0.046625	1.356210	-0.106555	-0.199835	1.179740	0.085756	-0.156528	1.178643	0.034731	-0.245549	0.925891	0.056812	-0.204618	0.913839	0.094182	-0.184826	1.506715	0.083670	-0.262746	0.972897	0.092116	-0.267785	0.918908	0.090364	-0.246856	0.916342	0.108860	-0.228792	0.969402	0.122168	-0.204905	1.280640	0.148973	-0.234472	1.291023	0.097554	-0.241105	1.354027	0.101689	-0.205676	1.354799	0.149071	0.101393	1.444589	0.092319	0.054821	1.389742	0.136154	0.061700	1.441770	0.111795	0.112210	1.393491	0.107306	0.037230	1.487444	0.050753	0.058900	1.302559	0.091736	-0.147116	1.489304	0.097588	0.050133	1.412622	0.129062
1497	14.970000	-0.019594	1.588474	-0.041244	-0.046594	1.356188	-0.106527	-0.199827	1.179800	0.085771	-0.156490	1.178693	0.034770	-0.245585	0.925971	0.056773	-0.204643	0.913907	0.094127	-0.184778	1.506743	0.083671	-0.262770	0.972986	0.092085	-0.267831	0.919005	0.090319	-0.246879	0.916409	0.108822	-0.228816	0.969485	0.122125	-0.205004	1.280808	0.149021	-0.234482	1.291111	0.097512	-0.241095	1.354119	0.101629	-0.205739	1.354895	0.148748	0.101469	1.444620	0.092319	0.054865	1.389789	0.136170	0.061729	1.441800	0.111816	0.112246	1.393519	0.107327	0.037275	1.487454	0.050748	0.058938	1.302576	0.091772	-0.147094	1.489363	0.097587	0.050169	1.412661	0.129085
1498	14.980000	-0.019552	1.588462	-0.041272	-0.046569	1.356162	-0.106497	-0.199820	1.179861	0.085783	-0.156456	1.178745	0.034806	-0.245630	0.926054	0.056730	-0.204677	0.913975	0.094067	-0.184734	1.506771	0.083672	-0.262802	0.973082	0.092026	-0.267885	0.919084	0.090267	-0.246943	0.916476	0.108770	-0.228869	0.969564	0.122083	-0.205032	1.280815	0.148932	-0.234485	1.291196	0.097480	-0.241103	1.354193	0.101581	-0.205796	1.354969	0.148782	0.101506	1.444628	0.092296	0.054897	1.389827	0.136199	0.061756	1.441823	0.111817	0.112290	1.393556	0.107347	0.037317	1.487461	0.050741	0.058971	1.302593	0.091809	-0.147077	1.489422	0.097587	0.050204	1.412707	0.129109
1499	14.990000	-0.019512	1.588449	-0.041303	-0.046549	1.356134	-0.106466	-0.199817	1.179922	0.085793	-0.156429	1.178798	0.034837	-0.245690	0.926138	0.056684	-0.204722	0.914041	0.093999	-0.184692	1.506801	0.083673	-0.262865	0.973166	0.091995	-0.267957	0.919184	0.090198	-0.247009	0.916544	0.108688	-0.228941	0.969640	0.122025	-0.205078	1.280912	0.148938	-0.234488	1.291282	0.097453	-0.241082	1.354286	0.101545	-0.205829	1.355048	0.148762	0.101512	1.444667	0.092343	0.054941	1.389877	0.136216	0.061803	1.441863	0.111818	0.112319	1.393576	0.107356	0.037355	1.487467	0.050733	0.058999	1.302607	0.091847	-0.147061	1.489482	0.097589	0.050255	1.412751	0.129139
1500	15.000000	-0.019474	1.588433	-0.041335	-0.046534	1.356103	-0.106435	-0.199818	1.179982	0.085798	-0.156407	1.178851	0.034861	-0.245767	0.926221	0.056635	-0.204781	0.914103	0.093923	-0.184651	1.506832	0.083673	-0.262939	0.973240	0.091957	-0.268051	0.919275	0.090115	-0.247086	0.916602	0.108610	-0.229038	0.969712	0.121969	-0.205086	1.280982	0.148939	-0.234486	1.291340	0.097444	-0.241073	1.354356	0.101538	-0.205842	1.355111	0.148771	0.101555	1.444691	0.092331	0.054994	1.389908	0.136225	0.061846	1.441883	0.111816	0.112361	1.393611	0.107364	0.037392	1.487471	0.050724	0.059024	1.302621	0.091884	-0.147045	1.489538	0.097593	0.050292	1.412782	0.129168
1501	15.010000	-0.019441	1.588416	-0.041365	-0.046526	1.356072	-0.106402	-0.199823	1.180040	0.085796	-0.156393	1.178904	0.034876	-0.245858	0.926305	0.056578	-0.204854	0.914161	0.093838	-0.184613	1.506862	0.083679	-0.263008	0.973312	0.091923	-0.268136	0.919366	0.090050	-0.247173	0.916675	0.108557	-0.229125	0.969778	0.121892	-0.205091	1.281035	0.148947	-0.234487	1.291408	0.097435	-0.241062	1.354416	0.101541	-0.205841	1.355159	0.148779	0.101593	1.444709	0.092325	0.055032	1.389954	0.136229	0.061900	1.441914	0.111807	0.112394	1.393630	0.107366	0.037425	1.487474	0.050714	0.059045	1.302632	0.091921	-0.147030	1.489592	0.097605	0.050349	1.412821	0.129161
1502	15.020000	-0.019408	1.588399	-0.041396	-0.046521	1.356040	-0.106371	-0.199835	1.180095	0.085786	-0.156387	1.178956	0.034882	-0.245970	0.926385	0.056515	-0.204944	0.914214	0.093742	-0.184577	1.506892	0.083685	-0.263106	0.973364	0.091882	-0.268232	0.919423	0.089967	-0.247287	0.916733	0.108482	-0.229223	0.969822	0.121794	-0.205110	1.281079	0.148932	-0.234490	1.291453	0.097430	-0.241053	1.354469	0.101539	-0.205845	1.355194	0.148778	0.101636	1.444678	0.092331	0.055078	1.389984	0.136228	0.061945	1.441919	0.111803	0.112432	1.393645	0.107360	0.037457	1.487475	0.050704	0.059064	1.302642	0.091957	-0.147013	1.489641	0.097623	0.050387	1.412843	0.129161
1503	15.030000	-0.019381	1.588382	-0.041425	-0.046523	1.356009	-0.106338	-0.199854	1.180147	0.085767	-0.156390	1.179007	0.034876	-0.246096	0.926464	0.056442	-0.205051	0.914262	0.093637	-0.184542	1.506921	0.083696	-0.263213	0.973419	0.091843	-0.268333	0.919468	0.089880	-0.247383	0.916781	0.108391	-0.229317	0.969834	0.121684	-0.205136	1.281113	0.148915	-0.234502	1.291501	0.097416	-0.241045	1.354518	0.101528	-0.205851	1.355221	0.148777	0.101676	1.444541	0.092333	0.055121	1.389993	0.136233	0.061994	1.441927	0.111793	0.112473	1.393654	0.107361	0.037486	1.487475	0.050694	0.059080	1.302651	0.091990	-0.146996	1.489685	0.097649	0.050440	1.412850	0.129160
1504	15.040000	-0.019357	1.588364	-0.041451	-0.046529	1.355979	-0.106306	-0.199880	1.180196	0.085738	-0.156401	1.179057	0.034860	-0.246240	0.926540	0.056359	-0.205175	0.914306	0.093523	-0.184510	1.506949	0.083710	-0.263318	0.973465	0.091785	-0.268492	0.919500	0.089794	-0.247500	0.916804	0.108305	-0.229394	0.969856	0.121605	-0.205189	1.281127	0.148892	-0.234520	1.291536	0.097370	-0.241054	1.354544	0.101498	-0.205883	1.355236	0.148768	0.101703	1.444560	0.092329	0.055149	1.389999	0.136234	0.062031	1.441936	0.111787	0.112509	1.393646	0.107353	0.037512	1.487475	0.050684	0.059094	1.302658	0.092021	-0.146978	1.489724	0.097683	0.050479	1.412853	0.129168
1505	15.050000	-0.019336	1.588348	-0.041476	-0.046538	1.355951	-0.106276	-0.199917	1.180242	0.085699	-0.156423	1.179105	0.034833	-0.246402	0.926612	0.056268	-0.205318	0.914344	0.093398	-0.184480	1.506976	0.083725	-0.263406	0.973512	0.091729	-0.268635	0.919543	0.089721	-0.247588	0.916824	0.108219	-0.229464	0.969890	0.121510	-0.205224	1.281142	0.148865	-0.234540	1.291557	0.097332	-0.241064	1.354578	0.101466	-0.205907	1.355262	0.148753	0.101728	1.444546	0.092326	0.055210	1.389994	0.136235	0.062063	1.441939	0.111780	0.112540	1.393627	0.107363	0.037536	1.487473	0.050674	0.059106	1.302664	0.092049	-0.146958	1.489757	0.097724	0.050506	1.412857	0.129166
1506	15.060000	-0.019321	1.588333	-0.041498	-0.046552	1.355925	-0.106246	-0.199962	1.180285	0.085647	-0.156455	1.179152	0.034793	-0.246575	0.926684	0.056163	-0.205476	0.914381	0.093266	-0.184454	1.507000	0.083744	-0.263488	0.973549	0.091727	-0.268694	0.919596	0.089728	-0.247677	0.916846	0.108160	-0.229501	0.969907	0.121453	-0.205266	1.281164	0.148826	-0.234570	1.291589	0.097293	-0.241083	1.354616	0.101439	-0.205925	1.355279	0.148734	0.101758	1.444542	0.092286	0.055225	1.389986	0.136237	0.062083	1.441935	0.111779	0.112553	1.393627	0.107342	0.037556	1.487472	0.050665	0.059117	1.302669	0.092075	-0.146938	1.489786	0.097771	0.050527	1.412862	0.129170
1507	15.070000	-0.019308	1.588318	-0.041519	-0.046567	1.355900	-0.106219	-0.200020	1.180325	0.085586	-0.156497	1.179197	0.034745	-0.246765	0.926750	0.056050	-0.205651	0.914413	0.093125	-0.184430	1.507023	0.083761	-0.263613	0.973607	0.091725	-0.268879	0.919651	0.089681	-0.247766	0.916883	0.108105	-0.229561	0.969926	0.121396	-0.205305	1.281190	0.148785	-0.234595	1.291628	0.097255	-0.241101	1.354659	0.101407	-0.205944	1.355308	0.148724	0.101753	1.444535	0.092283	0.055224	1.389990	0.136235	0.062097	1.441932	0.111772	0.112562	1.393629	0.107342	0.037573	1.487471	0.050655	0.059125	1.302674	0.092097	-0.146918	1.489808	0.097822	0.050538	1.412862	0.129168
